name analog
datacolumns 19
datarows 26
range 0.3330000000000001 0.3455000000000001
endheader
time	ground_force_vx	ground_force_vy	ground_force_vz	ground_force_px	ground_force_py	ground_force_pz	l_ground_force_vx	l_ground_force_vy	l_ground_force_vz	l_ground_force_px	l_ground_force_py	l_ground_force_pz	ground_torque_x	ground_torque_y	ground_torque_z	l_ground_torque_x	l_ground_torque_y	l_ground_torque_z
0.3330000000000001	-0.0	-0.0	-0.0	-11.940128326416016	-7.665214538574219	-826.125	-0.0	-0.0	-0.0	-0.0	-0.0	-0.0	-0.0	-0.0	-0.0	-0.0	-0.0	-0.0
0.3335000000000001	-0.0	-0.0	-0.0	-12.62571144104004	-7.093132972717285	-823.96875	-0.0	-0.0	-0.0	-0.0	-0.0	-0.0	-0.0	-0.0	-0.0	-0.0	-0.0	-0.0
0.3340000000000001	-0.0	-0.0	-0.0	-12.714990615844728	-6.974321365356445	-822.9093017578125	-0.0	-0.0	-0.0	-0.0	-0.0	-0.0	-0.0	-0.0	-0.0	-0.0	-0.0	-0.0
0.3345000000000001	-0.0	-0.0	-0.0	-12.13262939453125	-6.768806457519531	-822.4300537109375	-0.0	-0.0	-0.0	-0.0	-0.0	-0.0	-0.0	-0.0	-0.0	-0.0	-0.0	-0.0
0.3350000000000001	-0.0	-0.0	-0.0	-10.720917701721191	-6.202450752258301	-824.8621826171875	-0.0	-0.0	-0.0	-0.0	-0.0	-0.0	-0.0	-0.0	-0.0	-0.0	-0.0	-0.0
0.3355000000000001	-0.0	-0.0	-0.0	-9.23058795928955	-5.169563293457031	-824.1988525390625	-0.0	-0.0	-0.0	-0.0	-0.0	-0.0	-0.0	-0.0	-0.0	-0.0	-0.0	-0.0
0.3360000000000001	-0.0	-0.0	-0.0	-8.129266738891602	-4.576339721679688	-823.1408081054688	-0.0	-0.0	-0.0	-0.0	-0.0	-0.0	-0.0	-0.0	-0.0	-0.0	-0.0	-0.0
0.3365000000000001	-0.0	-0.0	-0.0	-7.153867721557617	-3.356566429138184	-821.49658203125	-0.0	-0.0	-0.0	-0.0	-0.0	-0.0	-0.0	-0.0	-0.0	-0.0	-0.0	-0.0
0.3370000000000001	-0.0	-0.0	-0.0	-6.54827880859375	-2.573200464248657	-820.6021118164062	-0.0	-0.0	-0.0	-0.0	-0.0	-0.0	-0.0	-0.0	-0.0	-0.0	-0.0	-0.0
0.3375000000000001	-0.0	-0.0	-0.0	-5.994956016540527	-1.984649896621704	-818.9771118164062	-0.0	-0.0	-0.0	-0.0	-0.0	-0.0	-0.0	-0.0	-0.0	-0.0	-0.0	-0.0
0.3380000000000001	-0.0	-0.0	-0.0	-5.495577812194824	-1.6934776306152344	-818.2938232421875	-0.0	-0.0	-0.0	-0.0	-0.0	-0.0	-0.0	-0.0	-0.0	-0.0	-0.0	-0.0
0.3385000000000001	-0.0	-0.0	-0.0	-5.294460296630859	-1.336956024169922	-817.611572265625	-0.0	-0.0	-0.0	-0.0	-0.0	-0.0	-0.0	-0.0	-0.0	-0.0	-0.0	-0.0
0.3390000000000001	-0.0	-0.0	-0.0	-4.632583618164063	-0.2036891877651214	-814.9249267578125	-0.0	-0.0	-0.0	-0.0	-0.0	-0.0	-0.0	-0.0	-0.0	-0.0	-0.0	-0.0
0.3395000000000001	-0.0	-0.0	-0.0	-3.89040732383728	1.8717384338378904	-814.1312255859375	-0.0	-0.0	-0.0	-0.0	-0.0	-0.0	-0.0	-0.0	-0.0	-0.0	-0.0	-0.0
0.3400000000000001	-0.0	-0.0	-0.0	-4.405938148498535	3.634399890899658	-811.1488647460938	-0.0	-0.0	-0.0	-0.0	-0.0	-0.0	-0.0	-0.0	-0.0	-0.0	-0.0	-0.0
0.3405000000000001	-0.0	-0.0	-0.0	-4.220564365386963	4.257955551147461	-809.0548095703125	-0.0	-0.0	-0.0	-0.0	-0.0	-0.0	-0.0	-0.0	-0.0	-0.0	-0.0	-0.0
0.3410000000000001	-0.0	-0.0	-0.0	-4.782895565032959	3.3596105575561523	-808.9450073242188	-0.0	-0.0	-0.0	-0.0	-0.0	-0.0	-0.0	-0.0	-0.0	-0.0	-0.0	-0.0
0.3415000000000001	-0.0	-0.0	-0.0	-4.865497589111328	1.8646955490112305	-809.7858276367188	-0.0	-0.0	-0.0	-0.0	-0.0	-0.0	-0.0	-0.0	-0.0	-0.0	-0.0	-0.0
0.3420000000000001	-0.0	-0.0	-0.0	-4.2215728759765625	0.4528152644634247	-810.8444213867188	-0.0	-0.0	-0.0	-0.0	-0.0	-0.0	-0.0	-0.0	-0.0	-0.0	-0.0	-0.0
0.3425000000000001	-0.0	-0.0	-0.0	-2.8210926055908203	-0.1373461186885833	-812.3717651367188	-0.0	-0.0	-0.0	-0.0	-0.0	-0.0	-0.0	-0.0	-0.0	-0.0	-0.0	-0.0
0.3430000000000001	-0.0	-0.0	-0.0	-1.323232889175415	-1.0361831188201904	-811.6665649414062	-0.0	-0.0	-0.0	-0.0	-0.0	-0.0	-0.0	-0.0	-0.0	-0.0	-0.0	-0.0
0.3435000000000001	-0.0	-0.0	-0.0	-0.6320558190345764	-1.2250993251800537	-811.2243041992188	-0.0	-0.0	-0.0	-0.0	-0.0	-0.0	-0.0	-0.0	-0.0	-0.0	-0.0	-0.0
0.3440000000000001	-0.0	-0.0	-0.0	0.2191577851772308	-0.9242741465568542	-813.2427368164062	-0.0	-0.0	-0.0	-0.0	-0.0	-0.0	-0.0	-0.0	-0.0	-0.0	-0.0	-0.0
0.3445000000000001	-0.0	-0.0	-0.0	-0.463096410036087	-0.6160451769828796	-813.2435302734375	-0.0	-0.0	-0.0	-0.0	-0.0	-0.0	-0.0	-0.0	-0.0	-0.0	-0.0	-0.0
0.3450000000000001	-0.0	-0.0	-0.0	-0.2596363425254822	0.0245951563119888	-813.212646484375	-0.0	-0.0	-0.0	-0.0	-0.0	-0.0	-0.0	-0.0	-0.0	-0.0	-0.0	-0.0
0.3455000000000001	-0.0	-0.0	-0.0	-0.8191945552825928	0.8345248103141785	-810.7406616210938	-0.0	-0.0	-0.0	-0.0	-0.0	-0.0	-0.0	-0.0	-0.0	-0.0	-0.0	-0.0
